<?xml version="1.0" encoding="UTF-8"?>
<svg xmlns="http://www.w3.org/2000/svg" xmlns:xlink="http://www.w3.org/1999/xlink" width="64pt" height="64pt" viewBox="0 0 64 64" version="1.1">
<g id="surface4759727">
<path style=" stroke:none;fill-rule:nonzero;fill:rgb(18.039216%,80%,44.313725%);fill-opacity:1;" d="M 63.011719 32 C 63.011719 14.875 49.125 0.988281 32 0.988281 C 14.875 0.988281 0.988281 14.875 0.988281 32 C 0.988281 49.125 14.875 63.011719 32 63.011719 C 49.125 63.011719 63.011719 49.125 63.011719 32 Z M 63.011719 32 "/>
<path style=" stroke:none;fill-rule:nonzero;fill:rgb(100%,100%,100%);fill-opacity:1;" d="M 52.023438 34.414062 L 52.023438 29.585938 L 47.449219 28.148438 C 47.0625 26.601562 46.449219 25.136719 45.636719 23.800781 L 47.863281 19.539062 L 44.449219 16.125 L 40.175781 18.351562 C 38.851562 17.550781 37.398438 16.949219 35.851562 16.5625 L 34.398438 11.960938 L 29.5625 11.960938 L 28.113281 16.5625 C 26.574219 16.949219 25.113281 17.550781 23.789062 18.351562 L 19.550781 16.125 L 16.125 19.550781 L 18.351562 23.8125 C 17.550781 25.148438 16.925781 26.601562 16.539062 28.164062 L 11.960938 29.601562 L 11.960938 34.425781 L 16.511719 35.863281 C 16.898438 37.425781 17.511719 38.898438 18.324219 40.25 L 16.125 44.449219 L 19.539062 47.863281 L 23.75 45.664062 C 25.101562 46.476562 26.585938 47.101562 28.164062 47.488281 L 29.585938 52.011719 L 34.425781 52.011719 L 35.851562 47.488281 C 37.425781 47.101562 38.898438 46.476562 40.261719 45.664062 L 44.476562 47.863281 L 47.886719 44.449219 L 45.6875 40.226562 C 46.5 38.875 47.113281 37.398438 47.5 35.835938 Z M 32 42.601562 C 26.164062 42.601562 21.425781 37.863281 21.425781 32.023438 C 21.425781 26.1875 26.164062 21.449219 32 21.449219 C 37.835938 21.449219 42.5625 26.1875 42.5625 32.023438 C 42.5625 37.875 37.835938 42.601562 32 42.601562 Z M 32 42.601562 "/>
</g>
</svg>
